# xmcd
#
# Track frame offsets:
#	150
#	17719
#	36702
#	54301
#	71970
#	97618
#	123849
#	141534
#	156911
#	176165
#	196675
#
# Disc length: 2843 seconds
#
# Revision: 0
# Processed by: cddbd v1.5.2PL0 Copyright (c) Steve Scherf et al.
# Submitted via: dBpowerAMP V4.0
#
DISCID=9a0b190b
DTITLE=Charliehorse - Come On
DYEAR=2006
DGENRE=Country
TTITLE0=Good To You
TTITLE1=GTO
TTITLE2=Come On
TTITLE3=Things Stay The Same
TTITLE4=South 25
TTITLE5=Gone To Stay
TTITLE6=Roll My Smoke
TTITLE7=Yosemite Sam
TTITLE8=Talk, Talk, Talk
TTITLE9=A Song For John
TTITLE10=Cut It Loose
EXTD=
EXTT0=
EXTT1=
EXTT2=
EXTT3=
EXTT4=
EXTT5=
EXTT6=
EXTT7=
EXTT8=
EXTT9=
EXTT10=
PLAYORDER=
